<svg xmlns="http://www.w3.org/2000/svg" viewBox="0 0 64 64">
  <defs>
    <linearGradient id="g" x1="0%" y1="0%" x2="100%" y2="100%">
      <stop offset="0%" stop-color="#ffb347"/>
      <stop offset="50%" stop-color="#ff9f1c"/>
      <stop offset="100%" stop-color="#ff4d00"/>
    </linearGradient>
  </defs>
  <path fill="url(#g)" d="M18 14c0-2.2 1.8-4 4-4h20c2.2 0 4 1.8 4 4v2h4c1.1 0 2 .9 2 2v34c0 2.2-1.8 4-4 4H16c-2.2 0-4-1.8-4-4V18c0-1.1.9-2 2-2h4v-2z"/>
  <path fill="#1a1208" fill-opacity=".85" d="M34 22L26 36h6l-2 12 12-18h-7l3-8z"/>
  <path fill="#fff5e6" fill-opacity=".9" d="M33 24l-5 10h4.2l-1.2 8.5L40 28h-5.5l1.5-4z"/>
</svg>
